<svg width="74" height="86" viewBox="0 0 74 86" xmlns="http://www.w3.org/2000/svg" xmlns:xlink="http://www.w3.org/1999/xlink"><title>icon_cards</title><defs><linearGradient x1="50%" y1="-124.145%" x2="50%" y2="100%" id="a"><stop stop-color="#005ED2" offset="0%"/><stop stop-color="#1B109F" offset="100%"/></linearGradient><linearGradient x1="50%" y1="0%" x2="50%" y2="100%" id="b"><stop stop-color="#D88C37" offset="0%"/><stop stop-color="#9F470F" offset="100%"/></linearGradient><linearGradient x1="50%" y1="-80.885%" x2="50%" y2="304.363%" id="d"><stop stop-color="#005ED2" offset="0%"/><stop stop-color="#1B109F" offset="100%"/></linearGradient><path d="M5.825.223C2.881.223.486 2.514.486 5.329v12.999c0 2.816 2.395 5.107 5.339 5.107h20.893c2.944 0 5.339-2.292 5.339-5.107V5.329C32.056 2.514 29.663.223 26.716.223H5.825zM4.201 18.328V5.329c0-.755.743-1.393 1.624-1.393h20.893c.881 0 1.624.638 1.624 1.393v12.999c0 .757-.744 1.393-1.626 1.393H5.825c-.881 0-1.624-.636-1.624-1.393z" id="c"/><linearGradient x1="50%" y1="-1082.508%" x2="50%" y2="2061.813%" id="f"><stop stop-color="#005ED2" offset="0%"/><stop stop-color="#1B109F" offset="100%"/></linearGradient><path d="M7.334 14.543a.928.928 0 0 0-.929.928v.929c0 .513.415.928.929.928h3.713a.928.928 0 0 0 .929-.928v-.929a.928.928 0 0 0-.929-.928H7.334z" id="e"/><path d="M14.413 14.543a.93.93 0 0 0-.929.928v.929c0 .513.417.928.929.928h3.715a.93.93 0 0 0 .929-.928v-.929a.93.93 0 0 0-.929-.928h-3.715z" id="g"/><path d="M21.493 14.543a.928.928 0 0 0-.928.928v.929c0 .513.415.928.928.928h3.715a.927.927 0 0 0 .928-.928v-.929a.928.928 0 0 0-.928-.928h-3.715z" id="h"/><path d="M7.334 6.62c-.512 0-.929.389-.929.864v3.468c.001.476.417.866.929.866h7.04c.512 0 .929-.39.929-.866V7.484c0-.475-.417-.864-.929-.864h-7.04zm.929 2.939v-.682c0-.477.417-.866.928-.866h3.327c.511 0 .929.389.929.866v.682c0 .476-.418.864-.929.864H9.191c-.511 0-.928-.388-.928-.864z" id="i"/><linearGradient x1="50%" y1="0%" x2="50%" y2="310.469%" id="k"><stop stop-color="#005ED2" offset="0%"/><stop stop-color="#1B109F" offset="100%"/></linearGradient><path d="M11.991-11.418L9.37-1.635h3.844l1.043-3.889L37.576.724 35.534 8.35c-.169.625-.876 1.04-1.621.978v3.714c.056.002.111.011.165.011 2.382 0 4.454-1.539 5.046-3.741l3.364-12.557c.726-2.723-.994-5.554-3.837-6.317l-20.18-5.407a5.546 5.546 0 0 0-1.436-.189c-2.381 0-4.453 1.538-5.044 3.74zm3.227 2.307l.361-1.345c.155-.582.753-.989 1.456-.989.158 0 .317.022.474.063l20.18 5.408c.85.227 1.404 1.036 1.209 1.766l-.36 1.346-23.32-6.249z" id="j"/></defs><g fill="none" fill-rule="evenodd"><path d="M-5-6h96v96H-5z"/><path d="M49.524 38.519v3.58c-2.41.604-4.222 3.07-4.222 6.016 0 2.945 1.812 5.412 4.222 6.015v3.58c-4.36-.612-7.74-4.681-7.74-9.595 0-4.913 3.38-8.983 7.74-9.596zm15.13 11.355a1.76 1.76 0 1 1 0-3.52 1.76 1.76 0 0 1 0 3.52zm-27.972-3.518a1.758 1.758 0 1 1 0 3.518 1.76 1.76 0 0 1 0-3.518zm-1.495-9.49c0 .97-.79 1.76-1.76 1.76-.63 0-1.218.09-1.758.266v-2.025c0-.97.789-1.76 1.758-1.76h2.086a4.836 4.836 0 0 0-.326 1.76zm-1.76 20.759c.97 0 1.76.79 1.76 1.76 0 .623.114 1.213.326 1.759h-2.086a1.76 1.76 0 0 1-1.758-1.76V57.36c.54.175 1.128.265 1.758.265zm0-26.036a5.284 5.284 0 0 0-5.277 5.278v22.518a5.284 5.284 0 0 0 5.277 5.278h16.097v-3.52h-8.18c-1.53 0-2.638-.738-2.638-1.758a5.285 5.285 0 0 0-5.28-5.278c-.613 0-1.757 0-1.757-2.815v-6.333c0-2.815 1.144-2.815 1.758-2.815a5.284 5.284 0 0 0 5.279-5.277c0-1.02 1.109-1.76 2.638-1.76h8.18V31.59H33.427zm34.482 7.037c-.971 0-1.76-.79-1.76-1.76 0-.622-.115-1.212-.326-1.758h2.086c.969 0 1.759.789 1.759 1.759v2.025a5.688 5.688 0 0 0-1.76-.266zm0 22.518h-2.086a4.857 4.857 0 0 0 .326-1.76c0-.97.789-1.76 1.76-1.76.63 0 1.219-.09 1.759-.264v2.025c0 .97-.79 1.759-1.76 1.759zm0-29.555h-7.917v3.519c1.529 0 2.638.739 2.638 1.759a5.284 5.284 0 0 0 5.279 5.277c.614 0 1.759 0 1.759 2.815v6.333c0 2.815-1.145 2.815-1.76 2.815a5.285 5.285 0 0 0-5.278 5.278c0 1.02-1.11 1.759-2.638 1.759v3.519h7.917a5.284 5.284 0 0 0 5.277-5.278V36.867a5.284 5.284 0 0 0-5.277-5.278z" fill="url(#a)" transform="translate(0 15)"/><path d="M53.043 31.589v-5.981h3.519v5.98h-3.52zm0 9.852v-6.333h3.519v6.333h-3.52zm0 9.764v-6.333h3.519v6.333h-3.52zm0 19.439v-5.981h3.519v5.98h-3.52zm0-9.5V54.81h3.519v6.333h-3.52z" fill="url(#b)" transform="translate(0 15)"/><g transform="translate(0 15.644)"><use fill="url(#d)" xlink:href="#c"/><use fill="url(#f)" xlink:href="#e"/><use fill="url(#f)" xlink:href="#g"/><use fill="url(#f)" xlink:href="#h"/><use fill="url(#f)" xlink:href="#i"/><use fill="url(#k)" xlink:href="#j"/></g></g></svg>