<?xml version="1.0" encoding="UTF-8"?>
<svg width="74px" height="86px" viewBox="0 0 74 86" version="1.1" xmlns="http://www.w3.org/2000/svg" xmlns:xlink="http://www.w3.org/1999/xlink">
    <!-- Generator: Sketch 49.1 (51147) - http://www.bohemiancoding.com/sketch -->
    <title>icon_cards</title>
    <desc>Created with Sketch.</desc>
    <defs>
        <linearGradient x1="50%" y1="-124.144655%" x2="50%" y2="100%" id="linearGradient-1">
            <stop stop-color="#005ED2" offset="0%"></stop>
            <stop stop-color="#1B109F" offset="100%"></stop>
        </linearGradient>
        <linearGradient x1="50%" y1="0%" x2="50%" y2="100%" id="linearGradient-2">
            <stop stop-color="#D88C37" offset="0%"></stop>
            <stop stop-color="#9F470F" offset="100%"></stop>
        </linearGradient>
        <linearGradient x1="50%" y1="-80.8853314%" x2="50%" y2="304.362937%" id="linearGradient-3">
            <stop stop-color="#005ED2" offset="0%"></stop>
            <stop stop-color="#1B109F" offset="100%"></stop>
        </linearGradient>
        <path d="M5.825,0.223 C2.881,0.223 0.486,2.514 0.486,5.329 L0.486,18.328 C0.486,21.144 2.881,23.435 5.825,23.435 L26.718,23.435 C29.662,23.435 32.057,21.143 32.057,18.328 L32.057,5.329 C32.056,2.514 29.663,0.223 26.716,0.223 L5.825,0.223 Z M4.201,18.328 L4.201,5.329 C4.201,4.574 4.944,3.936 5.825,3.936 L26.718,3.936 C27.599,3.936 28.342,4.574 28.342,5.329 L28.342,18.328 C28.342,19.085 27.598,19.721 26.716,19.721 L5.825,19.721 C4.944,19.721 4.201,19.085 4.201,18.328 Z" id="path-4"></path>
        <linearGradient x1="50%" y1="-1082.50763%" x2="50%" y2="2061.81323%" id="linearGradient-6">
            <stop stop-color="#005ED2" offset="0%"></stop>
            <stop stop-color="#1B109F" offset="100%"></stop>
        </linearGradient>
        <path d="M7.334,14.543 C6.82,14.543 6.405,14.959 6.405,15.471 L6.405,16.4 C6.405,16.913 6.82,17.328 7.334,17.328 L11.047,17.328 C11.561,17.328 11.976,16.913 11.976,16.4 L11.976,15.471 C11.977,14.959 11.561,14.543 11.047,14.543 L7.334,14.543 Z" id="path-7"></path>
        <path d="M14.413,14.543 C13.902,14.543 13.484,14.959 13.484,15.471 L13.484,16.4 C13.484,16.913 13.901,17.328 14.413,17.328 L18.128,17.328 C18.639,17.328 19.057,16.913 19.057,16.4 L19.057,15.471 C19.057,14.959 18.639,14.543 18.128,14.543 L14.413,14.543 Z" id="path-9"></path>
        <path d="M21.493,14.543 C20.98,14.543 20.565,14.959 20.565,15.471 L20.565,16.4 C20.565,16.913 20.98,17.328 21.493,17.328 L25.208,17.328 C25.721,17.328 26.136,16.913 26.136,16.4 L26.136,15.471 C26.136,14.959 25.721,14.543 25.208,14.543 L21.493,14.543 Z" id="path-11"></path>
        <path d="M7.334,6.62 C6.822,6.62 6.405,7.009 6.405,7.484 L6.405,10.952 C6.406,11.428 6.822,11.818 7.334,11.818 L14.374,11.818 C14.886,11.818 15.303,11.428 15.303,10.952 L15.303,7.484 C15.303,7.009 14.886,6.62 14.374,6.62 L7.334,6.62 Z M8.263,9.559 L8.263,8.877 C8.263,8.4 8.68,8.011 9.191,8.011 L12.518,8.011 C13.029,8.011 13.447,8.4 13.447,8.877 L13.447,9.559 C13.447,10.035 13.029,10.423 12.518,10.423 L9.191,10.423 C8.68,10.423 8.263,10.035 8.263,9.559 Z" id="path-13"></path>
        <linearGradient x1="50%" y1="0%" x2="50%" y2="310.468844%" id="linearGradient-15">
            <stop stop-color="#005ED2" offset="0%"></stop>
            <stop stop-color="#1B109F" offset="100%"></stop>
        </linearGradient>
        <path d="M11.991,-11.418 L9.37,-1.635 L13.214,-1.635 L14.257,-5.524 L37.576,0.724 L35.534,8.35 C35.365,8.975 34.658,9.39 33.913,9.328 L33.913,13.042 C33.969,13.044 34.024,13.053 34.078,13.053 C36.46,13.053 38.532,11.514 39.124,9.312 L42.488,-3.245 C43.214,-5.968 41.494,-8.799 38.651,-9.562 L18.471,-14.969 C18.001,-15.095 17.518,-15.158 17.035,-15.158 C14.654,-15.158 12.582,-13.62 11.991,-11.418 Z M15.218,-9.111 L15.579,-10.456 C15.734,-11.038 16.332,-11.445 17.035,-11.445 C17.193,-11.445 17.352,-11.423 17.509,-11.382 L37.689,-5.974 C38.539,-5.747 39.093,-4.938 38.898,-4.208 L38.538,-2.862 L15.218,-9.111 Z" id="path-16"></path>
    </defs>
    <g id="Report" stroke="none" stroke-width="1" fill="none" fill-rule="evenodd">
        <g id="Low-Income_1440" transform="translate(-162.000000, -5090.000000)">
            <g id="Content" transform="translate(110.000000, 90.000000)">
                <g id="Great-Credit-Cards" transform="translate(45.000000, 4920.000000)">
                    <g id="Header" transform="translate(2.000000, 74.000000)">
                        <g id="icon_cards">
                            <rect id="baseline" x="0" y="0" width="96" height="96"></rect>
                            <g id="Page-1" transform="translate(5.000000, 21.000000)">
                                <path d="M49.5237,38.5189 L49.5237,42.0999 C47.1137,42.7029 45.3017,45.1699 45.3017,48.1149 C45.3017,51.0599 47.1137,53.5269 49.5237,54.1299 L49.5237,57.7109 C45.1637,57.0979 41.7837,53.0289 41.7837,48.1149 C41.7837,43.2019 45.1637,39.1319 49.5237,38.5189 Z M64.6537,49.8739 C63.6817,49.8739 62.8937,49.0859 62.8937,48.1149 C62.8937,47.1429 63.6817,46.3559 64.6537,46.3559 C65.6257,46.3559 66.4127,47.1429 66.4127,48.1149 C66.4127,49.0859 65.6257,49.8739 64.6537,49.8739 Z M36.6817,46.3559 C37.6537,46.3559 38.4407,47.1429 38.4407,48.1149 C38.4407,49.0859 37.6537,49.8739 36.6817,49.8739 C35.7107,49.8739 34.9217,49.0859 34.9217,48.1149 C34.9217,47.1429 35.7107,46.3559 36.6817,46.3559 Z M35.1867,36.8669 C35.1867,37.8359 34.3967,38.6259 33.4267,38.6259 C32.7967,38.6259 32.2087,38.7169 31.6687,38.8919 L31.6687,36.8669 C31.6687,35.8969 32.4577,35.1079 33.4267,35.1079 L35.5127,35.1079 C35.3007,35.6539 35.1867,36.2439 35.1867,36.8669 Z M33.4267,57.6249 C34.3967,57.6249 35.1867,58.4149 35.1867,59.3849 C35.1867,60.0079 35.3007,60.5979 35.5127,61.1439 L33.4267,61.1439 C32.4577,61.1439 31.6687,60.3549 31.6687,59.3849 L31.6687,57.3599 C32.2087,57.5349 32.7967,57.6249 33.4267,57.6249 Z M33.4267,31.5889 C30.5167,31.5889 28.1497,33.9569 28.1497,36.8669 L28.1497,59.3849 C28.1497,62.2949 30.5167,64.6629 33.4267,64.6629 L49.5237,64.6629 L49.5237,61.1439 L41.3437,61.1439 C39.8147,61.1439 38.7057,60.4049 38.7057,59.3849 C38.7057,56.4749 36.3367,54.1069 33.4267,54.1069 C32.8127,54.1069 31.6687,54.1069 31.6687,51.2919 L31.6687,44.9589 C31.6687,42.1439 32.8127,42.1439 33.4267,42.1439 C36.3367,42.1439 38.7057,39.7769 38.7057,36.8669 C38.7057,35.8469 39.8147,35.1079 41.3437,35.1079 L49.5237,35.1079 L49.5237,31.5889 L33.4267,31.5889 Z M67.9087,38.6259 C66.9377,38.6259 66.1487,37.8359 66.1487,36.8669 C66.1487,36.2439 66.0337,35.6539 65.8227,35.1079 L67.9087,35.1079 C68.8777,35.1079 69.6677,35.8969 69.6677,36.8669 L69.6677,38.8919 C69.1277,38.7169 68.5387,38.6259 67.9087,38.6259 Z M67.9087,61.1439 L65.8227,61.1439 C66.0337,60.5979 66.1487,60.0079 66.1487,59.3849 C66.1487,58.4149 66.9377,57.6249 67.9087,57.6249 C68.5387,57.6249 69.1277,57.5349 69.6677,57.3599 L69.6677,59.3849 C69.6677,60.3549 68.8777,61.1439 67.9087,61.1439 Z M67.9087,31.5889 L59.9917,31.5889 L59.9917,35.1079 C61.5207,35.1079 62.6297,35.8469 62.6297,36.8669 C62.6297,39.7769 64.9987,42.1439 67.9087,42.1439 C68.5227,42.1439 69.6677,42.1439 69.6677,44.9589 L69.6677,51.2919 C69.6677,54.1069 68.5227,54.1069 67.9087,54.1069 C64.9987,54.1069 62.6297,56.4749 62.6297,59.3849 C62.6297,60.4049 61.5207,61.1439 59.9917,61.1439 L59.9917,64.6629 L67.9087,64.6629 C70.8187,64.6629 73.1857,62.2949 73.1857,59.3849 L73.1857,36.8669 C73.1857,33.9569 70.8187,31.5889 67.9087,31.5889 Z" id="Fill-1" fill="url(#linearGradient-1)"></path>
                                <path d="M53.0427,31.5889 L53.0427,25.6079 L56.5617,25.6079 L56.5617,31.5889 L53.0427,31.5889 Z M53.0427,41.4409 L53.0427,35.1079 L56.5617,35.1079 L56.5617,41.4409 L53.0427,41.4409 Z M53.0427,51.2049 L53.0427,44.8719 L56.5617,44.8719 L56.5617,51.2049 L53.0427,51.2049 Z M53.0427,70.6439 L53.0427,64.6629 L56.5617,64.6629 L56.5617,70.6439 L53.0427,70.6439 Z M53.0427,61.1439 L53.0427,54.8109 L56.5617,54.8109 L56.5617,61.1439 L53.0427,61.1439 Z" id="Combined-Shape" fill="url(#linearGradient-2)"></path>
                                <g id="Cards" transform="translate(0.000000, 0.643900)">
                                    <mask id="mask-5" fill="white">
                                        <use xlink:href="#path-4"></use>
                                    </mask>
                                    <use id="Clip-7" fill="url(#linearGradient-3)" xlink:href="#path-4"></use>
                                    <mask id="mask-8" fill="white">
                                        <use xlink:href="#path-7"></use>
                                    </mask>
                                    <use id="Clip-10" fill="url(#linearGradient-6)" xlink:href="#path-7"></use>
                                    <mask id="mask-10" fill="white">
                                        <use xlink:href="#path-9"></use>
                                    </mask>
                                    <use id="Clip-13" fill="url(#linearGradient-6)" xlink:href="#path-9"></use>
                                    <mask id="mask-12" fill="white">
                                        <use xlink:href="#path-11"></use>
                                    </mask>
                                    <use id="Clip-16" fill="url(#linearGradient-6)" xlink:href="#path-11"></use>
                                    <mask id="mask-14" fill="white">
                                        <use xlink:href="#path-13"></use>
                                    </mask>
                                    <use id="Clip-19" fill="url(#linearGradient-6)" xlink:href="#path-13"></use>
                                    <mask id="mask-17" fill="white">
                                        <use xlink:href="#path-16"></use>
                                    </mask>
                                    <use id="Clip-4" fill="url(#linearGradient-15)" xlink:href="#path-16"></use>
                                </g>
                            </g>
                        </g>
                    </g>
                </g>
            </g>
        </g>
    </g>
</svg>